<?xml version="1.0" encoding="iso-8859-1"?>
<!-- Generator: Adobe Illustrator 19.0.0, SVG Export Plug-In . SVG Version: 6.00 Build 0)  -->
<svg version="1.1" id="Layer_1" xmlns="http://www.w3.org/2000/svg" xmlns:xlink="http://www.w3.org/1999/xlink" x="0px" y="0px"
	 viewBox="0 0 496 496" style="enable-background:new 0 0 496 496;" xml:space="preserve">
<g>
	<g>
		<g>
			<path d="M282.896,352C328.456,339.824,360,299.12,360,251.632v-7.264c0-47.488-31.544-88.192-77.104-100.368
				C328.456,131.824,360,91.12,360,43.632V0h-16v32H184v16h159.816c-0.864,17.848-6.984,34.392-17.048,48H208v16h103.44
				c-10.136,8.192-22.192,14.272-35.656,17.376L248,135.792l-27.792-6.416c-27.576-6.36-49.44-24.984-60.44-49.376H304V64H154.408
				C152.872,57.44,152,50.632,152,43.632V16h152V0H152h-8h-8v43.632c0,47.488,31.544,88.192,77.104,100.368
				C167.544,156.176,136,196.88,136,244.368v7.264c0,47.488,31.544,88.192,77.104,100.368C167.544,364.176,136,404.88,136,452.368
				V496h8h8h152v-16H152v-27.632c0-7,0.872-13.808,2.408-20.368H304v-16H159.776c10.992-24.392,32.856-43.016,60.44-49.376
				L248,360.208l27.792,6.416c13.464,3.104,25.512,9.184,35.656,17.376H208v16h118.768c10.064,13.608,16.176,30.152,17.048,48H184
				v16h160v32h16v-43.632C360,404.88,328.456,364.176,282.896,352z M275.784,337.376L248,343.792l-27.792-6.416
				c-13.464-3.104-25.512-9.184-35.656-17.376H288v-16H169.232c-10.064-13.608-16.176-30.152-17.048-48H312v-16H152.184
				c0.864-17.848,6.984-34.392,17.048-48H288v-16H184.56c10.136-8.192,22.192-14.272,35.656-17.376L248,152.208l27.792,6.416
				c27.576,6.36,49.44,24.984,60.44,49.376H192v16h149.592c1.536,6.56,2.408,13.368,2.408,20.368v7.264
				c0,7-0.872,13.808-2.408,20.368H192v16h144.224C325.232,312.392,303.368,331.016,275.784,337.376z"/>
			<rect x="408" y="40" width="16" height="16"/>
			<rect x="408" y="72" width="16" height="16"/>
			<rect x="424" y="56" width="16" height="16"/>
			<rect x="392" y="56" width="16" height="16"/>
			<rect x="72" y="376" width="16" height="16"/>
			<rect x="72" y="408" width="16" height="16"/>
			<rect x="88" y="392" width="16" height="16"/>
			<rect x="56" y="392" width="16" height="16"/>
			<rect x="32" y="208" width="16" height="16"/>
			<rect x="32" y="240" width="16" height="16"/>
			<rect x="48" y="224" width="16" height="16"/>
			<rect x="16" y="224" width="16" height="16"/>
			<rect x="448" y="240" width="16" height="16"/>
			<rect x="425.346" y="249.374" transform="matrix(-0.7071 -0.7071 0.7071 -0.7071 557.7762 745.7872)" width="16" height="16"/>
			<rect x="416" y="272" width="16" height="16"/>
			<rect x="425.36" y="294.597" transform="matrix(-0.7071 -0.7071 0.7071 -0.7071 525.8234 822.9965)" width="16" height="16"/>
			<rect x="448" y="304" width="16" height="16"/>
			<rect x="470.622" y="294.59" transform="matrix(-0.7071 -0.7071 0.7071 -0.7071 603.0952 854.991)" width="16" height="16"/>
			<rect x="480" y="272" width="16" height="16"/>
			<rect x="470.608" y="249.368" transform="matrix(0.7071 0.7071 -0.7071 0.7071 322.1678 -263.0454)" width="16" height="16"/>
			<rect x="32" y="56" width="16" height="16"/>
			<rect x="9.372" y="65.374" transform="matrix(0.7071 0.7071 -0.7071 0.7071 56.9712 9.2065)" width="16" height="16"/>
			<rect y="88" width="16" height="16"/>
			<rect x="9.375" y="110.625" transform="matrix(0.7071 0.7071 -0.7071 0.7071 88.9692 22.4582)" width="16" height="16"/>
			<rect x="32" y="120" width="16" height="16"/>
			<rect x="54.618" y="110.622" transform="matrix(0.7071 0.7071 -0.7071 0.7071 102.2185 -9.5342)" width="16" height="16"/>
			<rect x="64" y="88" width="16" height="16"/>
			<rect x="54.623" y="65.379" transform="matrix(0.7071 0.7071 -0.7071 0.7071 70.2285 -22.7891)" width="16" height="16"/>
			<rect x="328" y="136" width="16" height="16"/>
			<rect x="360" y="136" width="16" height="16"/>
			<rect x="392" y="136" width="16" height="16"/>
			<rect x="88" y="136" width="16" height="16"/>
			<rect x="120" y="136" width="16" height="16"/>
			<rect x="152" y="136" width="16" height="16"/>
			<rect x="328" y="344" width="16" height="16"/>
			<rect x="360" y="344" width="16" height="16"/>
			<rect x="392" y="344" width="16" height="16"/>
			<rect x="88" y="344" width="16" height="16"/>
			<rect x="120" y="344" width="16" height="16"/>
			<rect x="152" y="344" width="16" height="16"/>
		</g>
	</g>
</g>
<g>
</g>
<g>
</g>
<g>
</g>
<g>
</g>
<g>
</g>
<g>
</g>
<g>
</g>
<g>
</g>
<g>
</g>
<g>
</g>
<g>
</g>
<g>
</g>
<g>
</g>
<g>
</g>
<g>
</g>
</svg>
